<svg width="380" height="134" viewBox="0 0 380 134" fill="none" xmlns="http://www.w3.org/2000/svg">
<g clip-path="url(#clip0)">
<path d="M211.168 39.568C211.168 36.656 210.448 34.416 209.008 32.848C207.568 31.28 205.648 30.496 203.248 30.496C201.904 30.496 200.848 30.544 200.08 30.64C199.344 30.736 198.752 30.848 198.304 30.976V46.72C198.848 47.168 199.632 47.6 200.656 48.016C201.68 48.432 202.8 48.64 204.016 48.64C205.296 48.64 206.384 48.416 207.28 47.968C208.208 47.488 208.96 46.848 209.536 46.048C210.112 45.216 210.528 44.256 210.784 43.168C211.04 42.048 211.168 40.848 211.168 39.568ZM215.824 39.568C215.824 41.456 215.568 43.2 215.056 44.8C214.576 46.4 213.856 47.776 212.896 48.928C211.936 50.08 210.752 50.976 209.344 51.616C207.968 52.256 206.384 52.576 204.592 52.576C203.152 52.576 201.872 52.384 200.752 52C199.664 51.616 198.848 51.248 198.304 50.896V60.88H193.84V27.808C194.896 27.552 196.208 27.28 197.776 26.992C199.376 26.672 201.216 26.512 203.296 26.512C205.216 26.512 206.944 26.816 208.48 27.424C210.016 28.032 211.328 28.896 212.416 30.016C213.504 31.136 214.336 32.512 214.912 34.144C215.52 35.744 215.824 37.552 215.824 39.568ZM220.714 39.568C220.714 37.36 221.034 35.44 221.674 33.808C222.314 32.144 223.162 30.768 224.218 29.68C225.274 28.592 226.49 27.776 227.866 27.232C229.242 26.688 230.65 26.416 232.09 26.416C235.45 26.416 238.026 27.472 239.818 29.584C241.61 31.664 242.506 34.848 242.506 39.136C242.506 39.328 242.506 39.584 242.506 39.904C242.506 40.192 242.49 40.464 242.458 40.72H225.37C225.562 43.312 226.314 45.28 227.626 46.624C228.938 47.968 230.986 48.64 233.77 48.64C235.338 48.64 236.65 48.512 237.706 48.256C238.794 47.968 239.61 47.696 240.154 47.44L240.778 51.184C240.234 51.472 239.274 51.776 237.898 52.096C236.554 52.416 235.018 52.576 233.29 52.576C231.114 52.576 229.226 52.256 227.626 51.616C226.058 50.944 224.762 50.032 223.738 48.88C222.714 47.728 221.946 46.368 221.434 44.8C220.954 43.2 220.714 41.456 220.714 39.568ZM237.85 37.12C237.882 35.104 237.37 33.456 236.314 32.176C235.29 30.864 233.866 30.208 232.042 30.208C231.018 30.208 230.106 30.416 229.306 30.832C228.538 31.216 227.882 31.728 227.338 32.368C226.794 33.008 226.362 33.744 226.042 34.576C225.754 35.408 225.562 36.256 225.466 37.12H237.85ZM258.134 26.512C258.518 26.512 258.95 26.544 259.43 26.608C259.942 26.64 260.438 26.704 260.918 26.8C261.398 26.864 261.83 26.944 262.214 27.04C262.63 27.104 262.934 27.168 263.126 27.232L262.358 31.12C262.006 30.992 261.414 30.848 260.582 30.688C259.782 30.496 258.742 30.4 257.462 30.4C256.63 30.4 255.798 30.496 254.966 30.688C254.166 30.848 253.638 30.96 253.382 31.024V52H248.918V28.096C249.974 27.712 251.286 27.36 252.854 27.04C254.422 26.688 256.182 26.512 258.134 26.512ZM273.242 48.784C275.066 48.784 276.41 48.544 277.274 48.064C278.17 47.584 278.618 46.816 278.618 45.76C278.618 44.672 278.186 43.808 277.322 43.168C276.458 42.528 275.034 41.808 273.05 41.008C272.09 40.624 271.162 40.24 270.266 39.856C269.402 39.44 268.65 38.96 268.01 38.416C267.37 37.872 266.858 37.216 266.474 36.448C266.09 35.68 265.898 34.736 265.898 33.616C265.898 31.408 266.714 29.664 268.346 28.384C269.978 27.072 272.202 26.416 275.018 26.416C275.722 26.416 276.426 26.464 277.13 26.56C277.834 26.624 278.49 26.72 279.098 26.848C279.706 26.944 280.234 27.056 280.682 27.184C281.162 27.312 281.53 27.424 281.786 27.52L280.97 31.36C280.49 31.104 279.738 30.848 278.714 30.592C277.69 30.304 276.458 30.16 275.018 30.16C273.77 30.16 272.682 30.416 271.754 30.928C270.826 31.408 270.362 32.176 270.362 33.232C270.362 33.776 270.458 34.256 270.65 34.672C270.874 35.088 271.194 35.472 271.61 35.824C272.058 36.144 272.602 36.448 273.242 36.736C273.882 37.024 274.65 37.328 275.546 37.648C276.73 38.096 277.786 38.544 278.714 38.992C279.642 39.408 280.426 39.904 281.066 40.48C281.738 41.056 282.25 41.76 282.602 42.592C282.954 43.392 283.13 44.384 283.13 45.568C283.13 47.872 282.266 49.616 280.538 50.8C278.842 51.984 276.41 52.576 273.242 52.576C271.034 52.576 269.306 52.384 268.058 52C266.81 51.648 265.962 51.376 265.514 51.184L266.33 47.344C266.842 47.536 267.658 47.824 268.778 48.208C269.898 48.592 271.386 48.784 273.242 48.784ZM310.888 39.52C310.888 41.504 310.6 43.296 310.024 44.896C309.448 46.496 308.632 47.872 307.576 49.024C306.552 50.176 305.32 51.072 303.88 51.712C302.44 52.32 300.872 52.624 299.176 52.624C297.48 52.624 295.912 52.32 294.472 51.712C293.032 51.072 291.784 50.176 290.728 49.024C289.704 47.872 288.904 46.496 288.328 44.896C287.752 43.296 287.464 41.504 287.464 39.52C287.464 37.568 287.752 35.792 288.328 34.192C288.904 32.56 289.704 31.168 290.728 30.016C291.784 28.864 293.032 27.984 294.472 27.376C295.912 26.736 297.48 26.416 299.176 26.416C300.872 26.416 302.44 26.736 303.88 27.376C305.32 27.984 306.552 28.864 307.576 30.016C308.632 31.168 309.448 32.56 310.024 34.192C310.6 35.792 310.888 37.568 310.888 39.52ZM306.232 39.52C306.232 36.704 305.592 34.48 304.312 32.848C303.064 31.184 301.352 30.352 299.176 30.352C297 30.352 295.272 31.184 293.992 32.848C292.744 34.48 292.12 36.704 292.12 39.52C292.12 42.336 292.744 44.576 293.992 46.24C295.272 47.872 297 48.688 299.176 48.688C301.352 48.688 303.064 47.872 304.312 46.24C305.592 44.576 306.232 42.336 306.232 39.52ZM317.168 27.76C318.192 27.504 319.552 27.232 321.248 26.944C322.944 26.656 324.896 26.512 327.104 26.512C329.088 26.512 330.736 26.8 332.048 27.376C333.36 27.92 334.4 28.704 335.168 29.728C335.968 30.72 336.528 31.92 336.848 33.328C337.168 34.736 337.328 36.288 337.328 37.984V52H332.864V38.944C332.864 37.408 332.752 36.096 332.528 35.008C332.336 33.92 332 33.04 331.52 32.368C331.04 31.696 330.4 31.216 329.6 30.928C328.8 30.608 327.808 30.448 326.624 30.448C326.144 30.448 325.648 30.464 325.136 30.496C324.624 30.528 324.128 30.576 323.648 30.64C323.2 30.672 322.784 30.72 322.4 30.784C322.048 30.848 321.792 30.896 321.632 30.928V52H317.168V27.76ZM353.179 48.784C354.235 48.784 355.163 48.768 355.963 48.736C356.795 48.672 357.483 48.576 358.027 48.448V41.008C357.707 40.848 357.179 40.72 356.443 40.624C355.739 40.496 354.875 40.432 353.851 40.432C353.179 40.432 352.459 40.48 351.691 40.576C350.955 40.672 350.267 40.88 349.627 41.2C349.019 41.488 348.507 41.904 348.091 42.448C347.675 42.96 347.467 43.648 347.467 44.512C347.467 46.112 347.979 47.232 349.003 47.872C350.027 48.48 351.419 48.784 353.179 48.784ZM352.795 26.416C354.587 26.416 356.091 26.656 357.307 27.136C358.555 27.584 359.547 28.24 360.283 29.104C361.051 29.936 361.595 30.944 361.915 32.128C362.235 33.28 362.395 34.56 362.395 35.968V51.568C362.011 51.632 361.467 51.728 360.763 51.856C360.091 51.952 359.323 52.048 358.459 52.144C357.595 52.24 356.651 52.32 355.627 52.384C354.635 52.48 353.643 52.528 352.651 52.528C351.243 52.528 349.947 52.384 348.763 52.096C347.579 51.808 346.555 51.36 345.691 50.752C344.827 50.112 344.155 49.28 343.675 48.256C343.195 47.232 342.955 46 342.955 44.56C342.955 43.184 343.227 42 343.771 41.008C344.347 40.016 345.115 39.216 346.075 38.608C347.035 38 348.155 37.552 349.435 37.264C350.715 36.976 352.059 36.832 353.467 36.832C353.915 36.832 354.379 36.864 354.859 36.928C355.339 36.96 355.787 37.024 356.203 37.12C356.651 37.184 357.035 37.248 357.355 37.312C357.675 37.376 357.899 37.424 358.027 37.456V36.208C358.027 35.472 357.947 34.752 357.787 34.048C357.627 33.312 357.339 32.672 356.923 32.128C356.507 31.552 355.931 31.104 355.195 30.784C354.491 30.432 353.563 30.256 352.411 30.256C350.939 30.256 349.643 30.368 348.523 30.592C347.435 30.784 346.619 30.992 346.075 31.216L345.547 27.52C346.123 27.264 347.083 27.024 348.427 26.8C349.771 26.544 351.227 26.416 352.795 26.416ZM377.297 52.48C374.545 52.416 372.593 51.824 371.441 50.704C370.289 49.584 369.713 47.84 369.713 45.472V15.52L374.177 14.752V44.752C374.177 45.488 374.241 46.096 374.369 46.576C374.497 47.056 374.705 47.44 374.993 47.728C375.281 48.016 375.665 48.24 376.145 48.4C376.625 48.528 377.217 48.64 377.921 48.736L377.297 52.48ZM203.584 69.752C204.704 69.752 205.664 69.832 206.464 69.992C207.264 70.12 207.84 70.248 208.192 70.376L207.568 74.216C207.216 74.088 206.736 73.96 206.128 73.832C205.52 73.672 204.784 73.592 203.92 73.592C201.84 73.592 200.384 74.168 199.552 75.32C198.72 76.44 198.304 77.96 198.304 79.88V82.04H207.904V85.784H198.304V107H193.84V79.784C193.84 76.584 194.624 74.12 196.192 72.392C197.76 70.632 200.224 69.752 203.584 69.752ZM217.024 107H212.56V82.04H217.024V107ZM214.768 77.528C213.968 77.528 213.28 77.272 212.704 76.76C212.16 76.216 211.888 75.496 211.888 74.6C211.888 73.704 212.16 73 212.704 72.488C213.28 71.944 213.968 71.672 214.768 71.672C215.568 71.672 216.24 71.944 216.784 72.488C217.36 73 217.648 73.704 217.648 74.6C217.648 75.496 217.36 76.216 216.784 76.76C216.24 77.272 215.568 77.528 214.768 77.528ZM224.684 82.76C225.708 82.504 227.068 82.232 228.764 81.944C230.46 81.656 232.412 81.512 234.62 81.512C236.604 81.512 238.252 81.8 239.564 82.376C240.876 82.92 241.916 83.704 242.684 84.728C243.484 85.72 244.044 86.92 244.364 88.328C244.684 89.736 244.844 91.288 244.844 92.984V107H240.38V93.944C240.38 92.408 240.268 91.096 240.044 90.008C239.852 88.92 239.516 88.04 239.036 87.368C238.556 86.696 237.916 86.216 237.116 85.928C236.316 85.608 235.324 85.448 234.14 85.448C233.66 85.448 233.164 85.464 232.652 85.496C232.14 85.528 231.644 85.576 231.164 85.64C230.716 85.672 230.3 85.72 229.916 85.784C229.564 85.848 229.308 85.896 229.148 85.928V107H224.684V82.76ZM260.694 103.784C261.75 103.784 262.678 103.768 263.478 103.736C264.31 103.672 264.998 103.576 265.542 103.448V96.008C265.222 95.848 264.694 95.72 263.958 95.624C263.254 95.496 262.39 95.432 261.366 95.432C260.694 95.432 259.974 95.48 259.206 95.576C258.47 95.672 257.782 95.88 257.142 96.2C256.534 96.488 256.022 96.904 255.606 97.448C255.19 97.96 254.982 98.648 254.982 99.512C254.982 101.112 255.494 102.232 256.518 102.872C257.542 103.48 258.934 103.784 260.694 103.784ZM260.31 81.416C262.102 81.416 263.606 81.656 264.822 82.136C266.07 82.584 267.062 83.24 267.798 84.104C268.566 84.936 269.11 85.944 269.43 87.128C269.75 88.28 269.91 89.56 269.91 90.968V106.568C269.526 106.632 268.982 106.728 268.278 106.856C267.606 106.952 266.838 107.048 265.974 107.144C265.11 107.24 264.166 107.32 263.142 107.384C262.15 107.48 261.158 107.528 260.166 107.528C258.758 107.528 257.462 107.384 256.278 107.096C255.094 106.808 254.07 106.36 253.206 105.752C252.342 105.112 251.67 104.28 251.19 103.256C250.71 102.232 250.47 101 250.47 99.56C250.47 98.184 250.742 97 251.286 96.008C251.862 95.016 252.63 94.216 253.59 93.608C254.55 93 255.67 92.552 256.95 92.264C258.23 91.976 259.574 91.832 260.982 91.832C261.43 91.832 261.894 91.864 262.374 91.928C262.854 91.96 263.302 92.024 263.718 92.12C264.166 92.184 264.55 92.248 264.87 92.312C265.19 92.376 265.414 92.424 265.542 92.456V91.208C265.542 90.472 265.462 89.752 265.302 89.048C265.142 88.312 264.854 87.672 264.438 87.128C264.022 86.552 263.446 86.104 262.71 85.784C262.006 85.432 261.078 85.256 259.926 85.256C258.454 85.256 257.158 85.368 256.038 85.592C254.95 85.784 254.134 85.992 253.59 86.216L253.062 82.52C253.638 82.264 254.598 82.024 255.942 81.8C257.286 81.544 258.742 81.416 260.31 81.416ZM277.324 82.76C278.348 82.504 279.708 82.232 281.404 81.944C283.1 81.656 285.052 81.512 287.26 81.512C289.244 81.512 290.892 81.8 292.204 82.376C293.516 82.92 294.556 83.704 295.324 84.728C296.124 85.72 296.684 86.92 297.004 88.328C297.324 89.736 297.484 91.288 297.484 92.984V107H293.02V93.944C293.02 92.408 292.908 91.096 292.684 90.008C292.492 88.92 292.156 88.04 291.676 87.368C291.196 86.696 290.556 86.216 289.756 85.928C288.956 85.608 287.964 85.448 286.78 85.448C286.3 85.448 285.804 85.464 285.292 85.496C284.78 85.528 284.284 85.576 283.804 85.64C283.356 85.672 282.94 85.72 282.556 85.784C282.204 85.848 281.948 85.896 281.788 85.928V107H277.324V82.76ZM315.735 107.576C313.719 107.576 311.943 107.256 310.407 106.616C308.903 105.976 307.623 105.08 306.567 103.928C305.543 102.776 304.775 101.416 304.263 99.848C303.751 98.248 303.495 96.488 303.495 94.568C303.495 92.648 303.767 90.888 304.311 89.288C304.887 87.688 305.687 86.312 306.711 85.16C307.735 83.976 308.983 83.064 310.455 82.424C311.959 81.752 313.623 81.416 315.447 81.416C316.567 81.416 317.687 81.512 318.807 81.704C319.927 81.896 320.999 82.2 322.023 82.616L321.015 86.408C320.343 86.088 319.559 85.832 318.663 85.64C317.799 85.448 316.871 85.352 315.879 85.352C313.383 85.352 311.463 86.136 310.119 87.704C308.807 89.272 308.151 91.56 308.151 94.568C308.151 95.912 308.295 97.144 308.583 98.264C308.903 99.384 309.383 100.344 310.023 101.144C310.695 101.944 311.543 102.568 312.567 103.016C313.591 103.432 314.839 103.64 316.311 103.64C317.495 103.64 318.567 103.528 319.527 103.304C320.487 103.08 321.239 102.84 321.783 102.584L322.407 106.328C322.151 106.488 321.783 106.648 321.303 106.808C320.823 106.936 320.279 107.048 319.671 107.144C319.063 107.272 318.407 107.368 317.703 107.432C317.031 107.528 316.375 107.576 315.735 107.576ZM325.807 94.568C325.807 92.36 326.127 90.44 326.767 88.808C327.407 87.144 328.255 85.768 329.311 84.68C330.367 83.592 331.583 82.776 332.959 82.232C334.335 81.688 335.743 81.416 337.183 81.416C340.543 81.416 343.119 82.472 344.911 84.584C346.703 86.664 347.599 89.848 347.599 94.136C347.599 94.328 347.599 94.584 347.599 94.904C347.599 95.192 347.583 95.464 347.551 95.72H330.463C330.655 98.312 331.407 100.28 332.719 101.624C334.031 102.968 336.079 103.64 338.863 103.64C340.431 103.64 341.743 103.512 342.799 103.256C343.887 102.968 344.703 102.696 345.247 102.44L345.871 106.184C345.327 106.472 344.367 106.776 342.991 107.096C341.647 107.416 340.111 107.576 338.383 107.576C336.207 107.576 334.319 107.256 332.719 106.616C331.151 105.944 329.855 105.032 328.831 103.88C327.807 102.728 327.039 101.368 326.527 99.8C326.047 98.2 325.807 96.456 325.807 94.568ZM342.943 92.12C342.975 90.104 342.463 88.456 341.407 87.176C340.383 85.864 338.959 85.208 337.135 85.208C336.111 85.208 335.199 85.416 334.399 85.832C333.631 86.216 332.975 86.728 332.431 87.368C331.887 88.008 331.455 88.744 331.135 89.576C330.847 90.408 330.655 91.256 330.559 92.12H342.943Z" fill="#F5F5F5"/>
<circle cx="67" cy="67" r="67" fill="#F5F5F5"/>
<line x1="164.5" y1="21" x2="164.5" y2="113.022" stroke="#F5F5F5" stroke-width="3"/>
<path d="M61.9341 99C57.7341 89.928 53.6741 80.436 49.7541 70.524C45.8901 60.612 42.2781 50.7 38.9181 40.788H50.5941C51.9381 44.708 53.3101 48.712 54.7101 52.8C56.1101 56.888 57.5101 60.92 58.9101 64.896C60.3101 68.816 61.7101 72.624 63.1101 76.32C64.5101 80.016 65.8821 83.404 67.2261 86.484C68.5141 83.404 69.8581 80.044 71.2581 76.404C72.6581 72.708 74.0581 68.872 75.4581 64.896C76.9141 60.92 78.3421 56.888 79.7421 52.8C81.1421 48.712 82.4861 44.708 83.7741 40.788H95.1141C91.6981 50.7 88.0581 60.612 84.1941 70.524C80.3301 80.436 76.2981 89.928 72.0981 99H61.9341Z" fill="#675477"
/>
</g>
<defs>
<clipPath id="clip0">
<rect width="380" height="134" rx="1" fill="white"/>
</clipPath>
</defs>
</svg>
