<svg width="120" height="120" viewBox="0 0 120 120" fill="none" xmlns="http://www.w3.org/2000/svg">
<rect width="120" height="120" rx="60" fill="#675477"/>
<path d="M40.2935 38.2C46.7362 38.2 51.6642 39.3733 55.0775 41.72C58.5335 44.0667 60.2615 47.736 60.2615 52.728C60.2615 55.3307 59.7922 57.5707 58.8535 59.448C57.9575 61.2827 56.6348 62.7973 54.8855 63.992C53.1362 65.144 51.0028 65.9973 48.4855 66.552C45.9682 67.1067 43.0882 67.384 39.8455 67.384H35.8135V83H27.7495V39.288C29.6268 38.8613 31.6962 38.584 33.9575 38.456C36.2615 38.2853 38.3735 38.2 40.2935 38.2ZM40.8695 45.176C38.8215 45.176 37.1362 45.24 35.8135 45.368V60.472H39.7175C43.6002 60.472 46.5868 59.9387 48.6775 58.872C50.7682 57.7627 51.8135 55.6933 51.8135 52.664C51.8135 51.2133 51.5362 49.9973 50.9815 49.016C50.4268 48.0347 49.6588 47.2667 48.6775 46.712C47.6962 46.1573 46.5228 45.7733 45.1575 45.56C43.8348 45.304 42.4055 45.176 40.8695 45.176ZM67.6245 83V38.648H95.6565V45.496H75.6885V56.824H93.4165V63.672H75.6885V83H67.6245Z" fill="#F5F5F5"/>
</svg>
